<svg width="389" height="273" viewBox="0 0 389 273" fill="none" xmlns="http://www.w3.org/2000/svg">
<path d="M0.6 63V0.0799971H26.736C32.8373 0.0799971 37.7653 2.104 41.52 6.152C45.3333 10.2 47.24 15.392 47.24 21.728C47.24 28.1227 45.3333 33.3733 41.52 37.48C37.7653 41.528 32.8373 43.552 26.736 43.552H16V63H0.6ZM16 30.352H23.568C26.1493 30.352 28.1147 29.56 29.464 27.976C30.872 26.392 31.576 24.3093 31.576 21.728C31.576 19.1467 30.9013 17.0933 29.552 15.568C28.2027 14.0427 26.296 13.28 23.832 13.28H16V30.352ZM45.7282 63L67.1122 0.0799971H83.3042L104.688 63H88.8482L84.9762 49.8H65.3522L61.5682 63H45.7282ZM68.9602 37.48H81.3682L77.8482 25.248L75.2962 14.424H75.1202C74.1815 19 73.3309 22.608 72.5682 25.248L68.9602 37.48ZM119.683 63V13.28H100.587V0.0799971H154.179V13.28H135.083V63H119.683ZM161.819 63V0.0799971H183.731C189.304 0.0799971 193.381 0.578664 195.963 1.576C199.6 2.984 202.445 5.272 204.499 8.44C206.552 11.5493 207.579 15.3627 207.579 19.88C207.579 23.4 206.757 26.7733 205.115 30C203.472 33.168 201.155 35.5147 198.163 37.04V37.216C198.749 37.9787 199.541 39.24 200.539 41L212.771 63H195.611L184.435 41.792H177.219V63H161.819ZM177.219 28.592H183.907C186.429 28.592 188.395 27.9173 189.803 26.568C191.211 25.2187 191.915 23.312 191.915 20.848C191.915 17.3867 190.683 15.1573 188.219 14.16C186.869 13.5733 184.933 13.28 182.411 13.28H177.219V28.592ZM219.741 63V0.0799971H235.141V63H219.741ZM248.358 63V0.0799971H263.758V24.368H270.094L283.118 0.0799971H299.662L282.678 30.176V30.352L300.63 63H283.382L270.094 37.48H263.758V63H248.358ZM307.741 63V0.0799971H323.141V63H307.741ZM0.6 167V104.08H39.144V117.28H16V130.48H35.184V143.68H16V167H0.6ZM47.8656 167V104.08H63.2656V167H47.8656ZM76.4828 167V104.08H91.8828V153.8H117.579V167H76.4828ZM122.574 167L127.766 104.08H144.486L153.638 130.656L156.806 141.04H156.982C158.155 136.816 159.211 133.355 160.15 130.656L169.302 104.08H186.022L191.126 167H175.726L173.79 138.664C173.672 137.256 173.614 135.672 173.614 133.912C173.614 132.152 173.643 130.744 173.702 129.688L173.79 128.104H173.614C172.206 132.504 171.032 136.024 170.094 138.664L163.494 156.88H150.294L143.694 138.664L140.174 128.104H139.998C140.232 131.976 140.232 135.496 139.998 138.664L138.062 167H122.574ZM0.6 271V208.08H39.144V221.28H16V234.48H35.184V247.68H16V271H0.6ZM47.8656 271V208.08H87.2896V221.28H63.2656V232.72H82.4496V245.92H63.2656V257.8H88.5216V271H47.8656ZM93.6552 263.08L101.751 251.376C103.746 253.136 106.122 254.661 108.879 255.952C111.637 257.243 114.306 257.888 116.887 257.888C118.941 257.888 120.525 257.477 121.639 256.656C122.813 255.835 123.399 254.779 123.399 253.488C123.399 252.139 122.695 250.907 121.287 249.792C119.938 248.619 118.237 247.651 116.183 246.888C114.13 246.125 111.901 245.157 109.495 243.984C107.09 242.752 104.861 241.461 102.807 240.112C100.754 238.763 99.0232 236.915 97.6152 234.568C96.2659 232.163 95.5912 229.405 95.5912 226.296C95.5912 220.547 97.7032 215.912 101.927 212.392C106.21 208.813 111.695 207.024 118.383 207.024C126.186 207.024 132.757 209.4 138.095 214.152L131.583 226.736C129.765 225.152 127.594 223.832 125.071 222.776C122.549 221.72 120.085 221.192 117.679 221.192C115.45 221.192 113.778 221.603 112.663 222.424C111.549 223.245 110.991 224.331 110.991 225.68C110.991 227.029 111.666 228.261 113.015 229.376C114.423 230.491 116.154 231.429 118.207 232.192C120.261 232.896 122.49 233.835 124.895 235.008C127.301 236.123 129.53 237.355 131.583 238.704C133.637 239.995 135.338 241.843 136.687 244.248C138.095 246.595 138.799 249.323 138.799 252.432C138.799 258.005 136.805 262.669 132.815 266.424C128.885 270.179 123.429 272.056 116.447 272.056C112.223 272.056 108.087 271.293 104.039 269.768C100.05 268.243 96.5885 266.013 93.6552 263.08ZM162.136 271V221.28H143.04V208.08H196.632V221.28H177.536V271H162.136ZM204.272 271V208.08H219.672V271H204.272ZM248.025 271L225.761 208.08H242.481L253.569 243.896C253.921 245.069 254.302 246.507 254.713 248.208C255.124 249.909 255.446 251.288 255.681 252.344L255.945 254.016H256.121C256.884 249.909 257.676 246.536 258.497 243.896L269.761 208.08H286.217L264.041 271H248.025ZM282.056 271L303.44 208.08H319.632L341.016 271H325.176L321.304 257.8H301.68L297.896 271H282.056ZM305.288 245.48H317.696L314.176 233.248L311.624 222.424H311.448C310.51 227 309.659 230.608 308.896 233.248L305.288 245.48ZM347.358 271V208.08H362.758V257.8H388.454V271H347.358Z" fill="#525166"/>
</svg>
