<svg width="694" height="268" viewBox="0 0 694 268" fill="none" xmlns="http://www.w3.org/2000/svg">
<path d="M38.9336 38.7959C38.9336 32.1405 38.1358 20.4531 24.892 20.4531H14.0416C0.79782 20.4531 0 32.1405 0 38.7959V115.738C0 122.394 0.79782 134.081 14.0416 134.081H24.892C38.1358 134.081 38.9336 122.394 38.9336 115.738V38.7959ZM15.7968 35.0624C15.7968 31.3289 18.669 30.8419 19.4668 30.8419C21.222 30.8419 23.1368 32.4652 23.1368 35.0624V119.472C23.1368 122.069 21.222 123.692 19.4668 123.692C18.669 123.692 15.7968 123.205 15.7968 119.472V35.0624Z" fill="white"/>
<path d="M53.6409 134.081H69.4378V79.5397H76.6181V134.081H92.415V20.4531H76.6181V68.6638H69.4378V20.4531H53.6409V134.081Z" fill="white"/>
<path d="M125.316 31.3289H132.497V134.081H148.294V20.4531H109.519V115.576C109.519 120.283 106.488 123.53 102.18 123.205V134.081H110.317C115.104 134.081 125.316 132.945 125.316 116.55V31.3289Z" fill="white"/>
<path d="M160.076 134.081H175.554L177.948 102.915H188.957L191.351 134.081H206.829L195.34 20.4531H171.565L160.076 134.081ZM178.745 92.0388L183.054 34.0884H183.851L188.16 92.0388H178.745Z" fill="white"/>
<path d="M218.615 134.081H234.412L243.507 70.1248V134.081H259.304V20.4531H243.507L234.412 86.3574V20.4531H218.615V134.081ZM223.721 0V4.54512C223.721 10.5512 227.71 14.7717 234.731 14.7717H243.826C250.049 14.7717 254.677 11.6875 254.677 4.54512V0H243.188V5.0321C243.188 6.65536 241.752 9.09025 239.199 9.09025C236.646 9.09025 235.21 7.14233 235.21 5.0321V0H223.721Z" fill="white"/>
<path d="M273.97 134.081H289.767V79.5397H296.947V134.081H312.744V20.4531H296.947V68.6638H289.767V20.4531H273.97V134.081Z" fill="white"/>
<path d="M0 268H15.7968V213.945L25.8494 268H41.0079L29.6789 208.102L39.4123 154.372H23.775L15.7968 203.232V154.372H0V268Z" fill="white"/>
<path d="M52.8618 268H68.6586L77.7538 204.044V268H93.5506V154.372H77.7538L68.6586 220.276V154.372H52.8618V268Z" fill="white"/>
<path d="M108.217 268H124.014V213.458H131.194V268H146.991V154.372H131.194V202.583H124.014V154.372H108.217V268Z" fill="white"/>
<path d="M200.636 172.715C200.636 166.059 199.838 154.372 186.594 154.372H175.744C162.5 154.372 161.702 166.059 161.702 172.715V249.657C161.702 256.313 162.5 268 175.744 268H186.594C199.838 268 200.636 256.313 200.636 249.657V172.715ZM177.499 168.981C177.499 165.248 180.371 164.761 181.169 164.761C182.924 164.761 184.839 166.384 184.839 168.981V253.391C184.839 255.988 182.924 257.611 181.169 257.611C180.371 257.611 177.499 257.124 177.499 253.391V168.981Z" fill="white"/>
<path d="M236.565 268H252.362V256.15H260.34C264.808 256.15 273.584 255.014 273.584 239.755V175.961C273.584 173.364 273.584 159.566 260.34 159.566H252.362V152.099H236.565V159.566H229.065C223.8 159.566 215.343 160.703 215.343 175.961V239.755C215.343 245.437 215.981 256.15 229.065 256.15H236.565V268ZM236.565 245.761C231.459 245.924 231.14 241.541 231.14 239.593V176.448C231.14 172.228 232.895 169.468 236.565 169.955V245.761ZM252.362 169.955C256.032 169.468 257.787 172.228 257.787 176.448V239.593C257.787 241.541 257.468 245.924 252.362 245.761V169.955Z" fill="white"/>
<path d="M288.306 268H325.644V257.124H304.103V213.458H325.325V202.583H304.103V165.248H325.325V154.372H288.306V268Z" fill="white"/>
<path d="M360.724 228.23V254.04C360.724 255.826 358.65 257.611 356.735 257.611C354.98 257.611 353.225 256.15 353.225 254.04V168.494C353.225 166.059 355.618 164.761 356.735 164.761C358.49 164.761 360.724 166.709 360.724 168.494V190.733H376.521V170.929C376.521 165.897 377.479 154.372 362.32 154.372H351.47C337.428 154.372 337.428 163.949 337.428 171.091V250.956C337.428 267.838 345.087 268 351.47 268H362.32C377 268 376.521 255.988 376.521 251.118V228.23H360.724Z" fill="white"/>
<path d="M396.695 268H412.492V165.248H424.459V154.372H384.727V165.248H396.695V268Z" fill="white"/>
<path d="M434.581 268H450.378L459.473 204.044V268H475.27V154.372H459.473L450.378 220.276V154.372H434.581V268Z" fill="white"/>
<path d="M489.936 268H513.233C527.912 268 528.87 257.611 528.87 252.254V220.926C528.87 213.621 524.083 208.751 517.222 208.913V207.777C527.912 207.29 528.551 198.038 528.551 194.629V170.929C528.551 165.735 529.029 154.372 513.392 154.372H489.936V268ZM505.733 257.124V213.621H507.807C510.839 213.621 513.073 216.218 513.073 220.439V251.28C513.073 255.014 510.68 257.124 507.488 257.124H505.733ZM505.733 203.232V165.248H507.488C510.201 165.248 513.073 167.52 513.073 170.929V198.038C513.073 201.122 511.797 203.232 507.329 203.232H505.733Z" fill="white"/>
<path d="M540.705 268H556.183L558.576 236.833H569.586L571.98 268H587.457L575.969 154.372H552.194L540.705 268ZM559.374 225.958L563.682 168.007H564.48L568.788 225.958H559.374Z" fill="white"/>
<path d="M617.434 165.248H624.614V268H640.411V154.372H601.637V249.495C601.637 254.202 598.606 257.449 594.297 257.124V268H602.435C607.222 268 617.434 266.864 617.434 250.469V165.248Z" fill="white"/>
<path d="M655.066 268H679.001C694.159 268 694 256.962 694 252.092V212.809C694 208.264 694 197.388 679.32 197.388H670.863V42.7729H655.066V268ZM670.863 257.124V208.264H673.895C678.203 208.264 678.203 212.972 678.203 214.919V251.93C678.203 255.176 676.448 257.124 674.054 257.124H670.863Z" fill="white"/>
<path d="M514.723 67.9786C520.603 70.9697 520.603 79.5064 514.723 82.4975L472.937 103.752C470.284 105.101 467.163 103.139 467.163 100.122V50.3536C467.163 47.3369 470.284 45.3748 472.937 46.7239L514.723 67.9786Z" fill="white"/>
</svg>
