<?xml version="1.0" standalone="no"?>
<!DOCTYPE svg PUBLIC "-//W3C//DTD SVG 20010904//EN"
 "http://www.w3.org/TR/2001/REC-SVG-20010904/DTD/svg10.dtd">
<svg version="1.0" xmlns="http://www.w3.org/2000/svg"
 width="983.000000pt" height="980.000000pt" viewBox="0 0 983.000000 980.000000"
 preserveAspectRatio="xMidYMid meet">

<g transform="translate(0.000000,980.000000) scale(0.100000,-0.100000)"
fill="#000000" stroke="none">
<path d="M7515 9791 c-6 -5 -39 -12 -75 -14 -82 -7 -139 -16 -165 -26 -11 -5
-45 -14 -75 -21 -69 -15 -262 -79 -274 -91 -6 -5 -18 -9 -28 -9 -10 0 -18 -4
-18 -10 0 -5 -11 -10 -25 -10 -14 0 -25 -4 -25 -10 0 -5 -9 -10 -20 -10 -11 0
-20 -3 -20 -8 0 -4 -14 -13 -31 -21 -37 -16 -137 -75 -164 -96 -11 -9 -32 -24
-47 -33 -16 -9 -28 -20 -28 -24 0 -4 -6 -8 -13 -8 -7 0 -19 -9 -27 -20 -8 -11
-20 -20 -27 -20 -19 0 -113 -92 -882 -860 -720 -720 -730 -730 -772 -840 -22
-57 -17 -206 9 -259 12 -25 22 -50 22 -56 0 -6 9 -17 20 -25 11 -8 20 -19 20
-25 0 -31 159 -135 207 -135 13 0 23 -4 23 -10 0 -6 35 -10 85 -10 50 0 85 4
85 10 0 6 12 10 26 10 24 0 114 43 150 72 9 7 48 46 87 87 40 41 83 83 96 95
14 12 57 54 95 95 39 41 82 83 95 95 14 12 57 54 95 95 39 41 82 83 95 95 14
12 57 54 95 95 39 40 82 83 95 95 13 11 181 179 375 371 193 193 364 359 379
370 16 11 38 28 49 37 11 10 29 20 39 23 11 4 19 10 19 14 0 4 16 13 35 21 19
8 35 17 35 22 0 4 9 8 20 8 11 0 20 5 20 10 0 6 9 10 20 10 11 0 20 5 20 10 0
6 9 10 20 10 11 0 20 5 20 10 0 6 8 10 17 10 9 0 42 9 72 20 109 38 199 50
373 50 145 0 183 -3 280 -26 62 -14 117 -30 122 -35 6 -5 16 -9 23 -9 8 0 33
-9 55 -20 23 -11 48 -20 55 -20 7 0 13 -4 13 -8 0 -5 16 -14 35 -22 19 -8 35
-17 35 -21 0 -4 9 -11 20 -14 11 -3 26 -12 32 -18 7 -7 31 -24 53 -39 22 -14
54 -40 72 -57 18 -17 35 -31 38 -31 7 0 55 -47 55 -55 0 -3 13 -19 29 -35 16
-17 42 -49 57 -73 16 -23 37 -51 47 -61 9 -11 17 -26 17 -33 0 -7 4 -13 8 -13
5 0 14 -16 22 -35 8 -19 17 -35 22 -35 4 0 8 -8 8 -18 0 -10 4 -22 9 -27 14
-16 59 -153 81 -248 26 -112 28 -376 5 -489 -17 -82 -76 -261 -87 -266 -5 -2
-8 -12 -8 -23 0 -10 -4 -19 -8 -19 -5 0 -14 -16 -22 -35 -8 -19 -17 -35 -22
-35 -4 0 -8 -9 -8 -19 0 -11 -4 -21 -8 -23 -4 -1 -30 -33 -56 -71 -30 -42
-531 -549 -1353 -1370 -1410 -1408 -1369 -1367 -1381 -1367 -4 0 -14 -9 -22
-20 -8 -11 -20 -20 -27 -20 -7 0 -13 -4 -13 -10 0 -5 -6 -10 -14 -10 -8 0 -16
-4 -18 -9 -5 -13 -172 -101 -191 -101 -9 0 -17 -4 -17 -10 0 -5 -9 -10 -19
-10 -11 0 -23 -4 -26 -10 -3 -5 -17 -10 -31 -10 -13 0 -24 -4 -24 -9 0 -5 -17
-11 -37 -14 -21 -3 -63 -11 -93 -18 -74 -16 -388 -16 -465 -1 -33 7 -75 16
-93 19 -18 3 -35 9 -38 14 -3 5 -16 9 -30 9 -13 0 -24 5 -24 10 0 6 -11 10
-25 10 -14 0 -25 5 -25 10 0 6 -8 10 -17 10 -10 0 -45 15 -78 33 -93 51 -109
61 -126 80 -9 9 -22 17 -29 17 -7 0 -20 8 -29 18 -9 9 -43 39 -76 67 -33 27
-67 57 -75 66 -8 8 -30 22 -47 30 -18 7 -33 17 -33 21 0 5 -11 8 -24 8 -13 0
-26 5 -28 11 -3 8 -42 12 -118 12 -76 0 -115 -4 -118 -12 -2 -6 -11 -11 -21
-11 -22 0 -71 -23 -71 -32 0 -5 -5 -8 -11 -8 -6 0 -16 -6 -23 -12 -7 -7 -25
-22 -39 -33 -15 -11 -27 -24 -27 -30 0 -6 -9 -17 -20 -25 -11 -8 -20 -22 -20
-32 0 -10 -4 -18 -10 -18 -5 0 -10 -9 -10 -20 0 -11 -4 -20 -9 -20 -8 0 -12
-15 -27 -118 -7 -43 9 -139 27 -174 5 -10 9 -25 9 -33 0 -8 4 -15 8 -15 5 0
15 -12 23 -27 8 -16 27 -41 44 -57 114 -108 134 -126 140 -126 4 0 15 -8 24
-18 9 -10 45 -39 81 -64 36 -26 70 -51 75 -55 6 -4 22 -14 38 -22 15 -8 27
-18 27 -23 0 -4 9 -8 20 -8 11 0 20 -3 20 -7 0 -5 10 -13 23 -19 12 -6 40 -21
62 -32 71 -38 148 -72 162 -72 7 0 13 -4 13 -10 0 -5 14 -10 30 -10 17 0 30
-4 30 -10 0 -5 11 -10 24 -10 14 0 28 -4 31 -10 3 -5 17 -10 31 -10 13 0 24
-4 24 -10 0 -5 18 -10 40 -10 22 0 40 -4 40 -9 0 -4 19 -11 43 -15 23 -3 65
-10 92 -16 219 -43 505 -43 745 1 30 5 72 13 93 16 20 3 40 9 43 14 3 5 21 9
40 9 19 0 34 5 34 10 0 6 11 10 24 10 14 0 28 5 31 10 3 6 17 10 31 10 13 0
24 5 24 10 0 6 9 10 20 10 11 0 28 4 38 9 9 5 33 16 52 23 19 7 64 28 100 47
36 18 75 38 87 45 13 6 23 14 23 19 0 4 9 7 20 7 11 0 20 5 20 10 0 6 7 10 15
10 8 0 15 5 15 10 0 6 7 10 15 10 8 0 15 5 15 10 0 6 5 10 11 10 11 0 89 55
126 90 12 11 24 20 27 20 3 0 31 24 62 53 123 113 2722 2714 2749 2752 17 22
38 47 47 56 10 9 18 20 18 25 0 5 13 24 29 43 16 19 35 46 43 60 7 14 15 28
19 31 6 5 45 74 90 159 16 29 29 62 29 72 0 10 3 19 8 19 4 0 13 15 20 33 8
17 18 41 22 52 50 117 105 339 116 465 3 30 9 64 15 75 12 26 5 364 -10 460
-32 206 -84 410 -121 477 -6 10 -10 25 -10 33 0 8 -4 15 -10 15 -5 0 -10 9
-10 20 0 11 -4 20 -10 20 -5 0 -10 7 -10 15 0 17 -102 217 -120 235 -3 3 -11
17 -19 33 -8 15 -18 27 -23 27 -4 0 -8 6 -8 13 0 7 -9 19 -20 27 -11 8 -20 19
-20 25 0 6 -15 28 -32 48 -18 20 -46 53 -63 73 -43 53 -163 172 -219 219 -27
22 -60 50 -75 62 -14 13 -31 23 -36 23 -6 0 -17 9 -25 20 -8 11 -20 20 -27 20
-7 0 -13 4 -13 8 0 5 -12 15 -27 23 -16 8 -30 17 -33 20 -11 13 -180 99 -194
99 -9 0 -16 5 -16 10 0 6 -9 10 -20 10 -11 0 -20 5 -20 10 0 6 -9 10 -20 10
-11 0 -20 5 -20 10 0 6 -8 10 -18 10 -10 0 -22 4 -27 8 -10 8 -120 45 -195 64
-141 37 -201 49 -280 55 -36 2 -69 9 -74 14 -6 5 -94 9 -196 9 -102 0 -190 -4
-195 -9z"/>
<path d="M4155 6410 c-22 -5 -66 -9 -97 -9 -32 -1 -58 -5 -58 -11 0 -5 -22
-10 -50 -10 -27 0 -50 -4 -50 -10 0 -5 -18 -10 -39 -10 -22 0 -43 -4 -46 -10
-3 -5 -21 -10 -39 -10 -18 0 -36 -3 -39 -7 -4 -3 -44 -20 -90 -35 -139 -49
-147 -53 -147 -60 0 -5 -9 -8 -19 -8 -11 0 -23 -4 -26 -10 -3 -5 -15 -10 -26
-10 -10 0 -19 -4 -19 -10 0 -5 -9 -10 -20 -10 -11 0 -20 -4 -20 -10 0 -5 -6
-10 -13 -10 -7 0 -23 -9 -35 -20 -12 -11 -28 -20 -37 -20 -8 0 -15 -4 -15 -10
0 -5 -5 -10 -10 -10 -14 0 -91 -50 -111 -72 -9 -10 -20 -18 -25 -18 -5 0 -21
-10 -36 -23 -14 -12 -46 -38 -70 -57 -64 -52 -2568 -2556 -2568 -2568 0 -6
-11 -22 -25 -36 -14 -14 -25 -30 -25 -36 0 -5 -4 -10 -10 -10 -5 0 -10 -5 -10
-10 0 -6 -8 -20 -18 -31 -11 -10 -25 -32 -33 -47 -8 -15 -17 -29 -20 -32 -3
-3 -19 -30 -35 -60 -16 -30 -31 -57 -34 -60 -7 -7 -76 -153 -101 -215 -17 -43
-58 -172 -69 -220 -6 -27 -15 -66 -20 -85 -18 -70 -22 -96 -27 -160 -3 -36 -9
-69 -14 -74 -12 -13 -12 -379 0 -391 5 -6 11 -39 15 -75 7 -84 19 -146 54
-280 19 -75 56 -185 64 -194 4 -6 8 -18 8 -28 0 -10 5 -18 10 -18 6 0 10 -9
10 -20 0 -11 5 -20 10 -20 6 0 10 -9 10 -20 0 -11 5 -20 10 -20 6 0 10 -6 10
-14 0 -15 65 -141 85 -166 7 -8 20 -30 29 -48 16 -31 35 -58 63 -87 7 -8 13
-18 13 -24 0 -6 5 -11 10 -11 6 0 10 -5 10 -10 0 -6 10 -22 22 -35 13 -13 37
-40 53 -61 42 -52 164 -173 210 -209 21 -16 49 -40 61 -52 13 -13 28 -23 34
-23 5 0 10 -4 10 -10 0 -5 6 -10 13 -10 7 0 19 -9 27 -20 8 -11 20 -20 27 -20
7 0 13 -4 13 -9 0 -5 8 -11 18 -14 19 -6 94 -49 102 -58 11 -12 122 -69 136
-69 8 0 14 -4 14 -10 0 -5 9 -10 20 -10 11 0 20 -4 20 -10 0 -5 9 -10 19 -10
11 0 21 -4 23 -8 2 -4 48 -23 103 -41 178 -59 255 -77 435 -103 139 -19 580
-10 580 13 0 5 20 9 45 9 25 0 53 4 63 9 9 5 42 14 72 21 69 15 262 79 274 91
6 5 18 9 28 9 10 0 18 5 18 10 0 6 9 10 19 10 11 0 23 5 26 10 3 6 15 10 26
10 10 0 19 5 19 10 0 6 4 10 8 10 12 0 163 86 192 110 14 11 30 20 35 20 6 0
17 9 25 20 8 11 20 20 27 20 7 0 13 3 13 8 0 4 17 18 37 32 21 14 57 43 82 65
59 54 1240 1234 1269 1269 31 37 55 82 72 136 18 54 18 232 1 238 -6 2 -11 15
-11 28 0 13 -4 24 -10 24 -5 0 -10 9 -10 20 0 11 -3 20 -8 20 -4 0 -18 18 -32
40 -14 22 -27 40 -30 40 -3 0 -18 12 -35 26 -30 26 -41 32 -130 65 -101 38
-278 13 -343 -48 -7 -7 -17 -13 -22 -13 -5 0 -284 -276 -622 -612 -337 -337
-636 -631 -663 -653 -28 -22 -51 -43 -53 -47 -2 -5 -9 -8 -16 -8 -7 0 -21 -8
-32 -18 -10 -10 -34 -25 -51 -32 -18 -8 -33 -18 -33 -22 0 -5 -9 -8 -20 -8
-11 0 -20 -4 -20 -10 0 -5 -9 -10 -20 -10 -11 0 -20 -4 -20 -10 0 -5 -7 -10
-15 -10 -8 0 -23 -4 -33 -10 -25 -13 -169 -56 -222 -66 -66 -12 -418 -9 -470
4 -25 6 -63 15 -85 20 -85 19 -245 85 -253 104 -2 4 -12 8 -23 8 -10 0 -19 4
-19 8 0 5 -11 14 -24 20 -14 6 -33 18 -43 26 -60 49 -129 104 -152 120 -14 10
-38 35 -54 55 -27 36 -85 110 -113 144 -8 9 -14 22 -14 27 0 6 -4 10 -10 10
-5 0 -10 7 -10 15 0 8 -4 15 -10 15 -5 0 -10 9 -10 19 0 11 -4 21 -8 23 -19 8
-81 160 -103 253 -6 22 -15 60 -21 85 -15 58 -15 419 -1 486 15 66 71 236 84
249 5 5 9 17 9 27 0 10 4 18 8 18 5 0 14 16 22 35 8 19 17 35 22 35 4 0 8 8 8
18 0 10 9 24 20 32 11 8 20 19 20 24 0 5 21 36 46 69 46 57 2389 2404 2460
2462 20 17 42 36 49 43 8 6 18 12 24 12 6 0 11 5 11 10 0 6 6 10 13 10 7 0 19
9 27 20 8 11 22 20 31 20 10 0 19 4 21 8 9 22 253 122 297 122 11 0 23 5 26
10 3 6 26 10 51 10 24 0 44 5 44 10 0 7 63 9 193 6 197 -4 275 -11 291 -27 6
-5 19 -9 31 -9 23 0 130 -38 194 -69 25 -11 51 -21 58 -21 7 0 13 -4 13 -10 0
-5 7 -10 15 -10 8 0 15 -4 15 -10 0 -5 7 -10 15 -10 8 0 15 -4 15 -10 0 -5 7
-10 15 -10 8 0 15 -4 15 -10 0 -5 6 -10 13 -10 6 0 26 -11 42 -25 52 -43 115
-99 151 -132 18 -18 40 -33 49 -33 8 0 15 -3 15 -8 0 -14 93 -46 165 -56 82
-13 242 35 285 84 10 11 21 20 26 20 12 1 74 84 74 98 0 7 5 12 10 12 6 0 10
9 10 20 0 11 5 20 10 20 6 0 10 14 10 30 0 17 5 30 10 30 6 0 10 35 10 85 0
50 -4 85 -10 85 -5 0 -10 14 -10 30 0 17 -4 30 -10 30 -5 0 -10 11 -10 25 0
14 -4 25 -10 25 -5 0 -10 6 -10 14 0 16 -121 142 -189 196 -25 19 -50 41 -57
48 -7 6 -16 12 -21 12 -5 0 -15 9 -23 20 -8 11 -19 20 -25 20 -5 0 -22 11 -38
24 -15 13 -41 29 -57 36 -17 7 -30 16 -30 19 0 4 -16 13 -35 21 -19 8 -35 17
-35 22 0 4 -9 8 -19 8 -11 0 -21 4 -23 8 -5 14 -170 89 -253 116 -44 15 -88
31 -97 36 -10 6 -31 10 -47 10 -17 0 -33 5 -36 10 -3 6 -22 10 -41 10 -19 0
-34 4 -34 9 0 5 -24 12 -52 15 -29 3 -87 10 -128 16 -102 14 -376 21 -425 10z"/>
</g>
</svg>
