<?xml version="1.0" encoding="utf-8"?><svg viewBox="0 0 682.667 682.667" xmlns="http://www.w3.org/2000/svg" xmlns:xlink="http://www.w3.org/1999/xlink"><style>:root>svg{display:none}:root>svg:target{display:block}</style><svg fill="none" viewBox="0 0 7 7" id="ic_arr-link" xmlns="http://www.w3.org/2000/svg"><path fill-rule="evenodd" clip-rule="evenodd" d="M1.409 0v6.154H0V0h1.409z" fill="#fff"/><path fill-rule="evenodd" clip-rule="evenodd" d="M0 0h6.076v1.338H0V0z" fill="#fff"/><path fill-rule="evenodd" clip-rule="evenodd" d="M6.041 7L.616 1.506l.96-.97L7 6.028 6.041 7z" fill="#fff"/></svg><svg fill="#666" version="1.0" viewBox="0 0 512 512" id="ic_camera" xmlns="http://www.w3.org/2000/svg"><path d="M195.5 49c-15.9 3.3-31.2 14.2-39.3 27.9-1.5 2.5-5 11.3-7.8 19.6l-5.1 15-40.4.5-40.4.5-6.7 2.6c-18.5 7.2-30.7 19.7-37 37.8l-2.3 6.6v258l2.6 6.7c7.8 20 21.9 32.8 41.5 37.8 7.6 2 11.8 2 195.4 2s187.8 0 195.4-2c11.1-2.8 19-7.3 27.1-15.5 8.2-8.1 12.7-16 15.5-27.1 1.9-7.5 2-11.5 2-131.4s-.1-123.9-2-131.4c-5.1-20-18.3-34.2-39-41.9-5.1-2-8.2-2.1-45.9-2.7l-40.4-.5-5.1-15c-5.8-17.1-8.4-22.1-16-30.2-6.1-6.5-13.4-11.3-23.4-15.2l-6.7-2.6-59-.2c-32.4-.1-60.8.2-63 .7zm118.1 32.5c6.1 1.8 11.8 6.4 14.6 11.8 1.2 2.3 4.9 12.7 8.4 23.1 3.5 10.4 7.1 20 7.9 21.3.9 1.4 3.5 3.3 5.8 4.4 3.9 1.7 7.2 1.9 47.8 1.9 49.9 0 50 0 57.9 8 8.6 8.5 8-1.5 8 136s.6 127.5-8 136c-8.6 8.7 9.5 8-200 8s-191.4.7-200-8c-8.6-8.5-8 1.5-8-136s-.6-127.5 8-136c7.9-8 8-8 57.9-8 40.3 0 43.9-.2 47.7-1.9 5.5-2.5 7.2-5.6 13.9-26.1 6.9-20.9 9.2-25.8 14.2-29.9 7.1-5.9 7.7-6 65.9-6 43.9-.1 53.9.2 58 1.4z"/><path d="M242.5 160.6c-16.9 2.6-29.6 6.7-43.1 13.8-31.1 16.6-53.4 46.3-61 81.6-2.6 11.8-2.6 36.2 0 48 10.4 48.2 47.5 84.5 96.1 94.1 9.1 1.8 33.9 1.8 43 0 48.8-9.6 84.9-45 96.2-94.3 2.3-10.1 2.3-37.3 0-47.6-11-48.3-46.1-83.4-93.9-93.8-7.1-1.5-31.2-2.7-37.3-1.8zm35 34.2c32.5 8.9 55.4 32 64.1 64.8 2.7 10.3 2.6 31.2-.3 41.9-8.7 32-31.8 55.1-63.8 63.8-10.7 2.9-31.6 3-41.9.3-38.6-10.3-64.8-41.6-67.3-80.5-1.6-24.8 7.7-49 25.7-67.1 13.2-13.1 28.2-21.1 46.5-24.6 9.4-1.8 27.8-1.1 37 1.4zm132-17.4c-10.1 4.4-12.5 17.8-4.6 25.7 11.2 11.3 29.6 1.2 26.7-14.6-1.8-9.4-13.1-15.1-22.1-11.1z"/></svg><svg viewBox="0 0 9 17" id="ic_fb" xmlns="http://www.w3.org/2000/svg"><path d="M8.216 0H7.198c-2.83 0-5.134 2.015-5.134 4.492v1.896H.324c-.179 0-.324.127-.324.284v2.272c0 .156.145.284.324.284h1.74v6.956c0 .157.146.284.325.284h2.595c.18 0 .325-.127.325-.284V9.228H7.89c.179 0 .324-.128.324-.284V6.672c0-.157-.145-.284-.324-.284H5.309V4.492c0-.911.847-1.653 1.889-1.653h1.018c.18 0 .325-.127.325-.284V.284C8.54.127 8.395 0 8.216 0z"/></svg><svg viewBox="0 0 30 26" id="ic_heart" xmlns="http://www.w3.org/2000/svg"><path d="M21.494.582a8.43 8.43 0 00-6.494 3 8.316 8.316 0 00-6.494-3A8.506 8.506 0 000 9.088C0 17.138 14.05 25 14.62 25.303c.23.154.53.154.76 0C15.95 25 30 17.253 30 9.088A8.506 8.506 0 0021.494.582zM15 23.784C12.797 22.494 1.519 15.62 1.519 9.088a6.987 6.987 0 016.987-6.987 6.835 6.835 0 015.848 3.152.798.798 0 001.292 0A6.987 6.987 0 0128.48 9.088c0 6.608-11.279 13.443-13.481 14.696z"/></svg><svg viewBox="0 0 24 24" id="ic_heart-solid" xmlns="http://www.w3.org/2000/svg"><path d="M17.192 2.565h.003A6.305 6.305 0 0123.5 8.87c0 1.49-.643 3.002-1.672 4.46-1.027 1.455-2.41 2.818-3.826 4.001-2.83 2.366-5.721 3.957-5.933 4.07l-.022.012-.02.014a.047.047 0 01-.053 0l-.02-.014-.023-.012c-.21-.111-3.1-1.726-5.932-4.103-1.416-1.189-2.8-2.555-3.827-4.007C1.142 11.836.5 10.336.5 8.871a6.305 6.305 0 016.305-6.306h.006a6.153 6.153 0 014.804 2.22l.383.46.384-.458a6.244 6.244 0 014.81-2.222z"/></svg><svg viewBox="0 0 20 21" id="ic_ig" xmlns="http://www.w3.org/2000/svg"><path d="M10.004 5.295a5.122 5.122 0 00-5.13 5.13 5.122 5.122 0 005.13 5.129c2.84 0 5.13-2.29 5.13-5.13 0-2.839-2.29-5.13-5.13-5.13zm0 8.464a3.34 3.34 0 01-3.334-3.335 3.338 3.338 0 013.334-3.335 3.338 3.338 0 013.335 3.335 3.34 3.34 0 01-3.335 3.335zm6.536-8.674c0 .665-.536 1.196-1.196 1.196a1.197 1.197 0 111.196-1.196zm3.397 1.214c-.076-1.602-.442-3.022-1.616-4.192C17.151.937 15.732.572 14.13.491c-1.651-.094-6.602-.094-8.254 0-1.598.076-3.018.442-4.192 1.612C.509 3.273.147 4.693.067 6.295c-.094 1.652-.094 6.603 0 8.254.076 1.603.442 3.023 1.616 4.192 1.174 1.17 2.59 1.536 4.192 1.616 1.652.094 6.603.094 8.254 0 1.603-.076 3.023-.442 4.192-1.616 1.17-1.17 1.536-2.59 1.616-4.192.094-1.651.094-6.598 0-8.25zm-2.134 10.023a3.376 3.376 0 01-1.901 1.901c-1.317.523-4.442.402-5.898.402-1.455 0-4.584.116-5.897-.402a3.377 3.377 0 01-1.902-1.901c-.522-1.317-.401-4.442-.401-5.898 0-1.455-.117-4.585.401-5.897a3.376 3.376 0 011.902-1.902c1.317-.522 4.442-.402 5.897-.402 1.456 0 4.585-.116 5.898.402a3.376 3.376 0 011.902 1.902c.522 1.317.401 4.442.401 5.897 0 1.456.12 4.585-.401 5.898z"/></svg><svg viewBox="0 0 24 24" id="ic_phone" xmlns="http://www.w3.org/2000/svg"><g clip-path="url(#gclip0)"><path d="M4.89 15.954c2.368 2.83 5.217 5.057 8.47 6.634 1.238.586 2.894 1.283 4.739 1.402.114.005.224.01.338.01 1.238 0 2.233-.428 3.044-1.308a.108.108 0 00.02-.025c.288-.348.616-.661.96-.994.233-.224.472-.458.7-.697 1.06-1.104 1.06-2.506-.01-3.575l-2.988-2.99c-.508-.526-1.114-.805-1.75-.805-.637 0-1.249.279-1.771.801l-1.78 1.78c-.165-.094-.334-.179-.493-.258a6.118 6.118 0 01-.547-.299c-1.621-1.03-3.093-2.372-4.5-4.098-.712-.9-1.19-1.655-1.522-2.426.467-.423.905-.866 1.328-1.298.149-.154.303-.309.457-.463.537-.537.826-1.159.826-1.79 0-.632-.284-1.253-.826-1.79L8.103 2.283c-.174-.174-.338-.344-.507-.518a27.27 27.27 0 00-1.01-1C6.074.265 5.472 0 4.836 0c-.632 0-1.239.264-1.77.77l-1.86 1.86a3.821 3.821 0 00-1.14 2.447c-.094 1.19.125 2.452.692 3.979.87 2.362 2.183 4.555 4.132 6.898zM1.28 5.182a2.63 2.63 0 01.79-1.69l1.85-1.85c.29-.28.607-.424.916-.424.303 0 .611.145.895.433.333.308.646.632.985.975.169.174.343.348.517.527l1.482 1.482c.308.308.467.622.467.93 0 .308-.159.621-.467.93l-.463.467c-.462.468-.895.91-1.372 1.333l-.025.025c-.413.413-.348.806-.249 1.104l.015.04c.383.92.915 1.795 1.746 2.84 1.492 1.84 3.063 3.267 4.794 4.366.213.139.442.248.656.358.199.1.383.194.547.298l.055.03c.164.084.323.124.482.124.398 0 .657-.253.741-.338l1.86-1.86c.289-.288.602-.442.91-.442.378 0 .687.233.88.442l3 2.994c.596.597.591 1.243-.016 1.875-.209.224-.427.438-.661.661-.348.338-.711.687-1.04 1.08-.571.616-1.253.905-2.133.905-.084 0-.174-.006-.259-.01-1.63-.105-3.147-.741-4.286-1.284-3.094-1.496-5.809-3.62-8.062-6.315-1.855-2.233-3.103-4.312-3.928-6.54-.513-1.367-.707-2.466-.627-3.466z"/></g><defs><clipPath id="gclip0"><path d="M0 0h24v24H0z"/></clipPath></defs></svg><svg fill="none" viewBox="0 0 17 24" id="ic_pin" xmlns="http://www.w3.org/2000/svg"><g clip-path="url(#hclip0_722_6)"><path d="M8.88.858C4.405.858.763 4.5.763 8.976c0 5.556 7.426 13.712 7.735 14.057.29.323.273.323.563 0 .31-.345 7.94-8.5 7.94-14.057C17 4.5 13.358.858 8.88.858z" fill="#48A216"/><path d="M9 14A5 5 0 109 4a5 5 0 000 10z" fill="#fff"/><path d="M9 11a2 2 0 100-4 2 2 0 000 4z" fill="#48A216"/></g><defs><clipPath id="hclip0_722_6"><path fill="#fff" d="M0 0h17v24H0z"/></clipPath></defs></svg><svg fill="none" viewBox="0 0 9 6" id="ic_select" xmlns="http://www.w3.org/2000/svg"><path d="M1 1l3.5 3L8 1" stroke="#000" stroke-width="2"/></svg><svg fill="none" viewBox="0 0 18 36" id="ic_swiper-next" xmlns="http://www.w3.org/2000/svg"><path d="M1 35l15-17L1 1" stroke="#000" stroke-width="2"/></svg><svg fill="none" viewBox="0 0 18 36" id="ic_swiper-prev" xmlns="http://www.w3.org/2000/svg"><path d="M17 35L2 18 17 1" stroke="#000" stroke-width="2"/></svg><svg viewBox="0 0 16 14" id="ic_tg" xmlns="http://www.w3.org/2000/svg"><path d="M6.279 9.096l-.265 3.723c.379 0 .543-.163.74-.358l1.775-1.697 3.679 2.695c.674.376 1.15.178 1.332-.621l2.415-11.316c.214-.997-.36-1.388-1.018-1.143L.743 5.813c-.969.376-.954.916-.165 1.161l3.629 1.129 8.43-5.274c.396-.263.757-.118.46.145L6.279 9.096z"/></svg><svg viewBox="0 0 16 13" id="ic_tw" xmlns="http://www.w3.org/2000/svg"><path d="M16 1.543a6.872 6.872 0 01-1.645 1.696 9.368 9.368 0 01-.376 3.066 9.453 9.453 0 01-1.177 2.517 9.91 9.91 0 01-1.868 2.143c-.724.615-1.597 1.11-2.62 1.482a9.666 9.666 0 01-3.278.548A9.106 9.106 0 010 11.523c.237.027.5.04.792.04a6.42 6.42 0 004.07-1.4 3.214 3.214 0 01-1.908-.65 3.235 3.235 0 01-1.157-1.625c.223.034.43.051.62.051.29 0 .578-.037.862-.112a3.259 3.259 0 01-1.888-1.126A3.201 3.201 0 01.65 4.609v-.04c.46.257.954.395 1.482.416a3.275 3.275 0 01-1.066-1.168A3.195 3.195 0 01.67 2.254c0-.596.149-1.147.447-1.655a9.373 9.373 0 002.985 2.426A9.22 9.22 0 007.878 4.03a3.643 3.643 0 01-.081-.75c0-.908.318-1.68.954-2.316A3.169 3.169 0 0111.076 0c.948 0 1.746.345 2.396 1.036a6.43 6.43 0 002.081-.792 3.184 3.184 0 01-1.441 1.807A6.534 6.534 0 0016 1.543z"/></svg><svg fill="none" viewBox="0 0 14 16" id="ic_user" xmlns="http://www.w3.org/2000/svg"><path d="M13.99 14.587c.094.776-.544 1.413-1.317 1.413H1.327C.554 16-.084 15.363.01 14.587.536 10.216 3.465 7.87 7 7.87c3.535 0 6.464 2.346 6.99 6.717zM10.343 3.384c0 1.87-1.497 3.385-3.343 3.385-1.846 0-3.343-1.516-3.343-3.385C3.657 1.515 5.154 0 7 0c1.846 0 3.343 1.515 3.343 3.384z" fill="#fff"/></svg><svg viewBox="0 0 20 20" id="ic_vb" xmlns="http://www.w3.org/2000/svg"><path d="M17.745 1.948c-.524-.457-2.64-1.914-7.36-1.934 0 0-5.565-.316-8.276 2.043C.602 3.487.07 5.584.013 8.18c-.058 2.597-.128 7.464 4.819 8.784h.004l-.004 2.015s-.033.817.535.98c.684.204 1.088-.417 1.743-1.085.358-.367.852-.906 1.227-1.316 3.386.27 5.985-.348 6.281-.438.684-.21 4.552-.68 5.178-5.546.65-5.023-.313-8.194-2.051-9.627zm.572 9.26c-.531 4.062-3.666 4.32-4.242 4.496-.247.074-2.534.613-5.404.437 0 0-2.142 2.449-2.81 3.086-.218.207-.457.187-.452-.223 0-.27.016-3.347.016-3.347-.004 0-.004 0 0 0-4.193-1.102-3.946-5.246-3.9-7.413.045-2.168.477-3.945 1.754-5.14 2.294-1.973 7.019-1.68 7.019-1.68 3.99.016 5.902 1.156 6.347 1.539 1.47 1.195 2.22 4.054 1.672 8.245zm-5.725-3.156c.016.336-.515.36-.532.024-.045-.86-.469-1.278-1.342-1.324-.354-.02-.322-.524.029-.504 1.149.058 1.787.683 1.845 1.804zm.836.442c.041-1.656-1.05-2.953-3.122-3.098-.35-.023-.313-.527.037-.504 2.389.164 3.662 1.723 3.616 3.613-.004.336-.54.32-.531-.011zm1.936.523c.004.336-.532.34-.532.004-.024-3.183-2.26-4.918-4.975-4.937-.35-.004-.35-.504 0-.504 3.036.02 5.478 2.008 5.507 5.437zm-.466 3.832v.007c-.444.742-1.276 1.563-2.133 1.3l-.008-.01c-.87-.231-2.917-1.231-4.21-2.208-.667-.5-1.277-1.09-1.746-1.656a12.643 12.643 0 01-1.269-1.82c-.877-1.503-1.07-2.175-1.07-2.175-.277-.813.584-1.602 1.37-2.023h.009c.379-.188.741-.125.984.152 0 0 .511.578.73.863.205.266.481.691.626.93.25.425.094.859-.153 1.039l-.494.375c-.251.19-.218.546-.218.546s.733 2.629 3.472 3.293c0 0 .375.031.576-.207l.396-.469c.19-.234.646-.383 1.095-.144.606.324 1.376.828 1.887 1.285.288.222.354.562.156.921z"/></svg><svg viewBox="0 0 19 11" id="ic_vk" xmlns="http://www.w3.org/2000/svg"><path d="M17.57 8.059c-.393-.414-.84-.785-1.27-1.143-.154-.128-.313-.26-.466-.39-.438-.377-.454-.519-.107-.947.24-.295.495-.59.742-.876.224-.26.455-.527.677-.796l.045-.055c.424-.515.862-1.047 1.095-1.689.06-.17.124-.418-.021-.627-.145-.208-.427-.272-.627-.301a1.946 1.946 0 00-.287-.017l-2.774-.002h-.023c-.42 0-.702.174-.864.53a13.74 13.74 0 01-.519 1.05c-.385.688-.875 1.48-1.584 2.141l-.03.028c-.084.08-.179.169-.248.169a.133.133 0 01-.035-.006c-.147-.05-.246-.362-.241-.507v-.006L11.03 1.8l-.003-.03c-.07-.457-.226-.742-.817-.843a.278.278 0 00-.048-.004H7.278c-.47 0-.729.168-.972.419-.066.067-.202.206-.135.376.07.172.292.208.365.22.361.06.564.254.622.593.1.588.113 1.216.039 1.975a1.49 1.49 0 01-.129.514c-.015.032-.07.138-.127.138-.018 0-.07-.006-.165-.063-.224-.135-.387-.327-.578-.564A12.863 12.863 0 014.53 1.817a.986.986 0 00-.92-.592c-.46-.006-.878-.01-1.276-.01-.435 0-.839.004-1.232.012-.337.005-.57.093-.693.263s-.115.394.024.664C1.544 4.32 2.55 5.896 3.697 7.261c.804.956 1.61 1.618 2.536 2.082.977.49 2.071.729 3.345.729.145 0 .294-.003.445-.01.74-.031 1.015-.266 1.05-.9.016-.323.057-.662.238-.951.114-.183.22-.183.256-.183.067 0 .151.028.241.079.161.092.3.216.413.324l.317.31c.228.224.464.456.71.675.538.481 1.132.693 1.813.647h2.56a.755.755 0 00.602-.34c.16-.248.157-.564-.008-.847a4.587 4.587 0 00-.645-.817z"/></svg><svg viewBox="0 0 16 17" id="ic_wa" xmlns="http://www.w3.org/2000/svg"><path d="M9.719 9.385c.27-.34.451-.51.541-.51.09 0 .428.153 1.01.458.591.306.904.49.938.552.014.035.021.087.021.157 0 .229-.059.493-.177.791-.111.271-.358.5-.74.688-.381.18-.736.27-1.062.27-.396 0-1.056-.215-1.98-.645a5.945 5.945 0 01-1.77-1.23C6 9.41 5.486 8.768 4.958 7.99c-.5-.743-.746-1.417-.74-2.021v-.084c.022-.632.279-1.18.772-1.645a.788.788 0 01.541-.23c.042 0 .104.007.188.021.083.007.15.01.198.01.132 0 .222.025.27.074.056.041.112.135.167.28.056.14.17.445.344.918.174.472.26.732.26.78 0 .147-.121.348-.364.605-.236.25-.354.41-.354.48 0 .048.017.1.052.155.236.507.59.983 1.062 1.427.39.368.913.72 1.573 1.053.083.048.16.072.23.072.103 0 .29-.166.562-.5zm-1.573 5.01a6.33 6.33 0 002.531-.52 6.581 6.581 0 002.094-1.396 6.613 6.613 0 001.396-2.083c.347-.813.52-1.66.52-2.542a6.33 6.33 0 00-.52-2.531 6.582 6.582 0 00-1.396-2.094 6.581 6.581 0 00-2.094-1.396 6.329 6.329 0 00-2.531-.52c-.882 0-1.73.173-2.542.52-.805.348-1.5.813-2.083 1.396a6.582 6.582 0 00-1.396 2.094 6.329 6.329 0 00-.52 2.531c0 1.41.416 2.688 1.25 3.833l-.824 2.428 2.521-.803a6.406 6.406 0 003.594 1.084zM5.094.626A7.669 7.669 0 018.146 0c1.062 0 2.076.208 3.041.625a7.918 7.918 0 012.51 1.677 7.918 7.918 0 011.678 2.51c.417.966.625 1.98.625 3.042 0 1.063-.208 2.08-.625 3.052a7.947 7.947 0 01-1.677 2.5 7.916 7.916 0 01-2.51 1.677 7.594 7.594 0 01-3.042.625 7.735 7.735 0 01-3.802-.979L0 16.125l1.417-4.219A7.666 7.666 0 01.292 7.854c0-1.062.208-2.076.625-3.042a7.917 7.917 0 011.677-2.51 7.948 7.948 0 012.5-1.677z"/></svg></svg>